<svg version="1.1" xmlns="http://www.w3.org/2000/svg" xmlns:xlink="http://www.w3.org/1999/xlink" width="265.02941" height="190.42388" viewBox="22.49516,268.09327,265.02941,190.42388"><g fill="#7fda9d" fill-rule="nonzero" stroke="none" stroke-width="1" stroke-linecap="butt" stroke-linejoin="miter" stroke-miterlimit="10" stroke-dasharray="" stroke-dashoffset="0" font-family="none" font-weight="none" font-size="none" text-anchor="none" style="mix-blend-mode: normal"><path d="M210.69116,405.79227c9.701,7.281 10.326,22.213 1.228,29.369c-3.421,2.692 -9.555,4.333 -13.11,3.508c-5.136,-1.192 -10.981,-5.244 -12.657,-8.777c-3.77,-7.945 -0.702,-19.594 6.444,-24.471c2.87,-1.957 4.405,-2.277 9.45,-1.967c3.978,0.245 6.915,1.039 8.645,2.338z" id="Path 1"/><path d="M220.52216,297.79827c3.526,1.793 6.647,5.372 8.452,9.693c2.787,6.67 1.664,12.897 -3.266,18.107c-3.959,4.185 -7.453,5.661 -13.386,5.657c-6.247,-0.004 -10.263,-2.114 -14.434,-7.583c-2.501,-3.279 -2.866,-4.618 -2.866,-10.512c0,-7.234 1.428,-10.265 6.685,-14.189c4.897,-3.657 12.945,-4.159 18.815,-1.173z" id="Path 1"/><path d="M271.11216,341.53127c17.247,8.808 21.855,31.853 9.236,46.188c-6.404,7.275 -11.678,9.841 -21.234,10.327c-7.634,0.389 -8.46,0.222 -14.592,-2.966c-4.511,-2.344 -7.571,-4.823 -9.998,-8.1l-3.498,-4.721l-22.502,-0.221c-25.717,-0.253 -32.202,-0.372 -33.232,-0.61c-0.401,-0.093 1.229,-3.207 3.622,-6.919c2.394,-3.712 5.766,-9.562 7.495,-13l3.142,-6.25h20.293h20.293l3.07,-4.356c6.444,-9.142 13.956,-12.791 25.315,-12.297c5.651,0.245 8.755,0.966 12.59,2.925z" id="Path 1"/><path d="M55.52216,410.25927v48h-16.5h-16.5v-48v-48h16.5h16.5z" id="Path 1"/><path d="M125.43416,270.63627c17.867,4.669 31.758,15.947 39.564,32.123c3.75,7.771 6.533,19.623 6.507,27.708c-0.072,21.823 -14.183,45.088 -32.677,53.874c-3.956,1.88 -7.219,3.73 -7.25,4.111c-0.031,0.381 10.069,15.975 22.444,34.653c12.375,18.678 22.5,34.341 22.501,34.807c0.001,0.466 -8.734,0.716 -19.41,0.557l-19.411,-0.291l-4.279,-7.209c-2.353,-3.966 -10.999,-17.56 -19.212,-30.21c-8.214,-12.65 -15.438,-23.788 -16.052,-24.75c-0.951,-1.489 -2.723,-1.75 -11.878,-1.75h-10.759v-15.865v-15.866l17.75,-0.537c12.171,-0.368 19.371,-1.042 22.907,-2.145c13.586,-4.239 21.689,-15.02 21.662,-28.822c-0.019,-9.521 -2.884,-16.289 -9.36,-22.112c-8.192,-7.365 -11.247,-7.947 -44.185,-8.421l-28.726,-0.414l-0.274,17.341l-0.274,17.341l-16,-0.27l-16,-0.271l-0.264,-33.062l-0.263,-33.063l48.263,0.434c40.953,0.368 49.235,0.687 54.676,2.109z" id="Path 1"/></g></svg>